<?xml version="1.0" encoding="UTF-8" standalone="no"?>
<!-- Generator: Adobe Illustrator 25.3.1, SVG Export Plug-In . SVG Version: 6.00 Build 0)  -->

<svg
   version="1.1"
   viewBox="0 0 436.40504 295.81424"
   xml:space="preserve"
   id="svg13816"
   xmlns="http://www.w3.org/2000/svg"
   xmlns:svg="http://www.w3.org/2000/svg"><defs
   id="defs19" />

<g
   id="g10827"><path
     d="m 19.999065,295.17712 q -2.404951,-3.78028 -4.936478,-7.64551 -2.489335,-3.86524 -4.978671,-7.64552 -2.4893347,-3.78029 -4.9364777,-7.3482 v 22.63923 H 0 v -30.36969 h 5.4005914 q 3.7972906,5.52176 7.4680056,11.12847 3.712905,5.60672 7.38362,11.38333 v -22.5118 h 5.147439 v 30.36969 z"
     id="path10717"
     style="fill:#0fa88b;fill-opacity:1;stroke-width:0.996663" /><path
     d="m 45.778437,264.1703 q 3.37537,0 6.075665,1.10435 2.700296,1.10436 4.641133,3.18564 1.98303,2.08128 2.995641,5.01206 1.054803,2.93078 1.054803,6.54116 0,3.61039 -1.054803,6.54117 -1.012611,2.88831 -2.953448,4.96959 -1.940838,2.08128 -4.683326,3.18563 -2.700295,1.10435 -6.075665,1.10435 -3.375369,0 -6.075665,-1.10435 -2.700296,-1.10435 -4.683326,-3.18563 -1.940837,-2.08128 -2.99564,-5.01207 -1.012611,-2.93078 -1.012611,-6.54116 0,-3.61039 1.012611,-6.49869 1.054803,-2.93078 2.99564,-5.01206 1.940837,-2.08128 4.641134,-3.18564 2.742488,-1.10435 6.117857,-1.10435 z m 0,26.97169 q 2.869064,0 4.936478,-1.31673 2.067413,-1.3592 3.164409,-3.82276 1.096995,-2.50603 1.096995,-5.98899 0,-3.52543 -1.096995,-5.98899 -1.096996,-2.50603 -3.164409,-3.82276 -2.067414,-1.3592 -4.936478,-1.3592 -2.869064,0 -4.936478,1.3592 -2.067414,1.31673 -3.164409,3.82276 -1.096995,2.46356 -1.096995,5.94652 0,3.48296 1.096995,5.98899 1.096995,2.50603 3.164409,3.86523 2.067414,1.31673 4.936478,1.31673 z"
     id="path10719"
     style="fill:#0fa88b;fill-opacity:1;stroke-width:0.996663" /><path
     d="m 71.431214,283.53895 v 11.63817 h -5.274015 v -30.36969 h 10.379262 q 5.864705,0 8.986921,2.46355 3.122217,2.42108 3.122217,6.92344 0,3.01574 -1.518916,5.18197 -1.518917,2.12375 -4.345788,3.18563 1.983029,3.05821 3.923866,6.20136 1.940838,3.14316 3.839483,6.41374 h -6.16005 q -1.645492,-2.97325 -3.375369,-5.86156 -1.687685,-2.88831 -3.459754,-5.81909 -0.506305,0.0425 -1.054803,0.0425 z m 0,-14.44154 v 10.15155 h 4.76771 q 3.501945,0 5.274014,-1.1893 1.77207,-1.23178 1.77207,-3.86524 0,-2.63345 -1.77207,-3.86523 -1.772069,-1.23178 -5.231822,-1.23178 z"
     id="path10721"
     style="fill:#0fa88b;fill-opacity:1;stroke-width:0.996663" /><path
     d="m 92.515093,264.80743 h 25.019927 v 4.67226 h -9.83076 v 25.69743 h -5.3584 v -25.69743 h -9.830767 z"
     id="path10723"
     style="fill:#0fa88b;fill-opacity:1;stroke-width:0.996663" /><path
     d="m 142.12447,295.17712 v -13.54955 h -14.68286 v 13.54955 h -5.35839 v -30.36969 h 5.35839 v 12.14788 h 14.68286 v -12.14788 h 5.35841 v 30.36969 z"
     id="path10725"
     style="fill:#0fa88b;fill-opacity:1;stroke-width:0.996663" /><path
     d="m 153.91802,264.80743 h 20.16783 v 4.54483 h -14.80943 v 7.8579 h 13.20613 v 4.54483 h -13.20613 v 8.8773 h 15.61108 v 4.54483 h -20.96948 z"
     id="path10727"
     style="fill:#0fa88b;fill-opacity:1;stroke-width:0.996663" /><path
     d="m 185.86077,283.53895 v 11.63817 h -5.27402 v -30.36969 h 10.37926 q 5.8647,0 8.98692,2.46355 3.12222,2.42108 3.12222,6.92344 0,3.01574 -1.51892,5.18197 -1.51892,2.12375 -4.34579,3.18563 1.98303,3.05821 3.92387,6.20136 1.94084,3.14316 3.83949,6.41374 h -6.16006 q -1.64549,-2.97325 -3.37537,-5.86156 -1.68768,-2.88831 -3.45975,-5.81909 -0.50631,0.0425 -1.0548,0.0425 z m 0,-14.44154 v 10.15155 h 4.7677 q 3.50195,0 5.27402,-1.1893 1.77206,-1.23178 1.77206,-3.86524 0,-2.63345 -1.77206,-3.86523 -1.77207,-1.23178 -5.23182,-1.23178 z"
     id="path10729"
     style="fill:#0fa88b;fill-opacity:1;stroke-width:0.996663" /><path
     d="m 229.21169,295.17712 q -2.40495,-3.78028 -4.93648,-7.64551 -2.48933,-3.86524 -4.97867,-7.64552 -2.48933,-3.78029 -4.93647,-7.3482 v 22.63923 h -5.14744 v -30.36969 h 5.40059 q 3.7973,5.52176 7.46801,11.12847 3.7129,5.60672 7.38362,11.38333 v -22.5118 h 5.14743 v 30.36969 z"
     id="path10731"
     style="fill:#0fa88b;fill-opacity:1;stroke-width:0.996663" /><path
     d="m 253.06855,264.80743 h 5.3584 v 30.36969 h -5.3584 z"
     id="path10733"
     style="fill:#0fa88b;fill-opacity:1;stroke-width:0.996663" /><path
     d="m 269.95221,283.53895 v 11.63817 h -5.27402 v -30.36969 h 10.37927 q 5.8647,0 8.98691,2.46355 3.12222,2.42108 3.12222,6.92344 0,3.01574 -1.51891,5.18197 -1.51892,2.12375 -4.34579,3.18563 1.98303,3.05821 3.92387,6.20136 1.94083,3.14316 3.83948,6.41374 h -6.16005 q -1.64549,-2.97325 -3.37537,-5.86156 -1.68769,-2.88831 -3.45975,-5.81909 -0.50631,0.0425 -1.05481,0.0425 z m 0,-14.44154 v 10.15155 h 4.76771 q 3.50194,0 5.27401,-1.1893 1.77207,-1.23178 1.77207,-3.86524 0,-2.63345 -1.77207,-3.86523 -1.77207,-1.23178 -5.23182,-1.23178 z"
     id="path10735"
     style="fill:#0fa88b;fill-opacity:1;stroke-width:0.996663" /><path
     d="m 294.18151,264.80743 h 20.16784 v 4.54483 H 299.5399 v 7.8579 h 13.20614 v 4.54483 H 299.5399 v 8.8773 h 15.61109 v 4.54483 h -20.96948 z"
     id="path10737"
     style="fill:#0fa88b;fill-opacity:1;stroke-width:0.996663" /><path
     d="m 321.488,264.80743 h 5.3584 v 25.69743 h 14.85162 v 4.67226 H 321.488 Z"
     id="path10739"
     style="fill:#0fa88b;fill-opacity:1;stroke-width:0.996663" /><path
     d="m 368.85255,295.17712 q -0.63289,-1.8689 -1.30796,-3.69533 -0.63289,-1.8689 -1.30796,-3.69533 H 353.0305 q -0.67508,1.82643 -1.30795,3.69533 -0.63289,1.82643 -1.26577,3.69533 h -5.65374 q 2.91125,-7.98532 5.90689,-15.58836 3.03783,-7.60304 6.16005,-14.78133 h 5.69594 q 3.2066,7.60304 6.20224,15.20608 3.03784,7.60305 5.86471,15.16361 z M 354.67599,283.2841 h 9.91515 q -1.22357,-3.35554 -2.44714,-6.62612 -1.22357,-3.27058 -2.48933,-6.49869 -1.30796,3.22811 -2.57372,6.54116 -1.22358,3.27059 -2.40496,6.58365 z"
     id="path10741"
     style="fill:#0fa88b;fill-opacity:1;stroke-width:0.996663" /><path
     d="m 398.60466,295.17712 q -2.40495,-3.78028 -4.93648,-7.64551 -2.48934,-3.86524 -4.97867,-7.64552 -2.48933,-3.78029 -4.93648,-7.3482 v 22.63923 h -5.14744 v -30.36969 h 5.40059 q 3.79729,5.52176 7.468,11.12847 3.71291,5.60672 7.38363,11.38333 v -22.5118 h 5.14744 v 30.36969 z"
     id="path10743"
     style="fill:#0fa88b;fill-opacity:1;stroke-width:0.996663" /><path
     d="m 410.37248,295.17712 v -30.36969 h 11.01214 q 4.72552,0 8.05869,1.78395 3.37538,1.78395 5.14745,5.18196 1.81426,3.35554 1.81426,8.15522 0,4.84216 -1.81426,8.24017 -1.77207,3.39801 -5.14745,5.22444 -3.33317,1.78395 -8.10088,1.78395 z m 5.3584,-25.78238 v 21.19507 h 5.31621 q 4.72551,0 7.25705,-2.7184 2.53152,-2.71841 2.53152,-7.94285 0,-5.13948 -2.48934,-7.81542 -2.48933,-2.7184 -7.25704,-2.7184 z"
     id="path10745"
     style="fill:#0fa88b;fill-opacity:1;stroke-width:0.996663" /></g><path
   d="M 7.0309006,109.52327 H 114.31125 v 23.67262 H 74.347545 V 235.83615 H 46.994607 V 133.19589 H 7.0309006 Z"
   id="path3273"
   style="fill:#0fa88b;fill-opacity:1;stroke-width:0.994617" /><path
   d="m 235.80427,235.83615 q -6.0625,-21.37602 -11.94668,-42.75205 -5.70588,-21.37603 -11.23345,-42.75205 -5.34926,21.37602 -11.05514,42.75205 -5.70586,21.37603 -11.76836,42.75205 h -29.06431 q -9.09374,-30.91574 -17.47425,-62.53812 -8.3805,-31.6224 -15.86946,-63.77476 h 29.95585 q 4.45772,24.55592 9.45036,49.11185 4.99263,24.55594 10.52021,48.22857 11.94668,-46.10862 22.64519,-92.04058 h 26.74629 q 5.34926,22.61265 10.87684,45.22531 5.70587,22.436 11.59005,44.87199 5.34926,-23.31931 10.3419,-47.34525 4.99265,-24.02595 9.27205,-48.05189 h 29.42093 q -7.48897,32.15236 -15.86947,63.77476 -8.38051,31.62238 -17.47425,62.53812 z"
   id="path3275"
   style="fill:#0fa88b;fill-opacity:1;stroke-width:0.994617" /><path
   d="m 366.55103,106.87334 q 14.38694,0 25.93201,4.5932 11.72269,4.5932 19.89305,13.2496 8.34797,8.47975 12.78838,20.66939 4.44042,12.01297 4.44042,27.20585 0,15.01621 -4.44042,27.20586 -4.44041,12.18963 -12.78838,20.84603 -8.17036,8.65641 -19.89305,13.24961 -11.54507,4.5932 -25.93201,4.5932 -14.38693,0 -26.10962,-4.5932 -11.54507,-4.5932 -19.89304,-13.24961 -8.17036,-8.6564 -12.61078,-20.84603 -4.4404,-12.18965 -4.4404,-27.20586 0,-15.19288 4.4404,-27.20585 4.44042,-12.18964 12.61078,-20.66939 8.34797,-8.6564 19.89304,-13.2496 11.72269,-4.5932 26.10962,-4.5932 z m 0,107.94011 q 10.83461,0 18.64974,-4.94652 7.81512,-5.12318 11.9003,-14.48623 4.08518,-9.36306 4.08518,-22.78932 0,-13.42626 -4.08518,-22.78932 -4.08518,-9.36306 -11.9003,-14.30957 -7.81513,-4.94652 -18.64974,-4.94652 -10.8346,0 -18.64972,4.94652 -7.81513,4.94651 -11.90031,14.30957 -4.08518,9.36306 -4.08518,22.78932 0,13.42626 4.08518,22.78932 4.08518,9.36305 11.90031,14.48623 7.81512,4.94652 18.64972,4.94652 z"
   id="path3277"
   style="fill:#0fa88b;fill-opacity:1;stroke-width:0.994617" /><path
   id="path6041-0"
   style="fill:#0fa88b;fill-opacity:1"
   d="M 90.534781,0 V 73.02 H 163.55483 V 0 Z m 91.256969,0 v 73.02 h 73.0192 V 0 Z m 91.1855,0 v 73.02 h 73.01922 V 0 Z m 39.80947,15.540341 c 2.2708,0 4.39976,0.213828 6.45764,0.710533 2.0579,0.496714 3.90246,1.135018 5.67649,2.057545 v 7.947592 c -1.56117,-1.064416 -3.33453,-1.844667 -5.17956,-2.412388 -1.91598,-0.567683 -3.90348,-0.852084 -5.81944,-0.781115 -2.83849,0 -5.251,0.497015 -7.23793,1.561441 -1.98694,0.993457 -3.54788,2.62535 -4.54137,4.541343 -1.06441,1.986887 -1.56143,4.3995 -1.56143,7.237935 0,2.838397 0.49702,5.322459 1.56143,7.309392 0.99349,1.986915 2.55478,3.548403 4.47074,4.612839 1.98695,1.064425 4.32834,1.560566 7.09584,1.560566 4.25769,0 8.16108,-1.134877 11.78013,-3.334754 v 7.876135 h -0.0715 c -1.7031,0.922517 -3.68939,1.703755 -5.88921,2.200469 -2.27076,0.567646 -4.61302,0.780298 -7.09669,0.780298 -3.26422,0 -6.24443,-0.496818 -8.86999,-1.419326 -2.62559,-0.993485 -4.82539,-2.34188 -6.67036,-4.115907 -1.84503,-1.774037 -3.19304,-3.973312 -4.18653,-6.598888 -0.99345,-2.625519 -1.41934,-5.535195 -1.41934,-8.799366 0,-3.193297 0.49653,-6.031657 1.48997,-8.65727 0.99349,-2.554645 2.48361,-4.754729 4.32864,-6.599715 1.91596,-1.844978 4.18686,-3.264002 6.81245,-4.186529 2.62558,-0.993419 5.60576,-1.49083 8.87,-1.49083 z m -201.7439,0.426348 h 15.39826 c 4.54154,0 8.08989,0.922536 10.57353,2.696544 2.48365,1.844978 3.76108,4.399359 3.76108,7.805477 0,1.986971 -0.42535,3.619645 -1.34786,5.109816 -0.92248,1.419194 -2.19978,2.553771 -3.9738,3.405375 2.4127,0.780552 4.25709,2.058457 5.53439,3.832513 1.27731,1.703078 1.91628,3.831901 1.91628,6.315531 0.071,2.483713 -0.56748,4.612142 -1.84481,6.38616 -1.2773,1.774037 -3.05173,3.122761 -5.32251,4.045268 -2.34173,0.922527 -5.10914,1.418489 -8.30242,1.418489 h -16.39214 z m 91.32761,0 h 15.39826 c 4.54155,0 8.08985,0.922536 10.57352,2.696544 2.48367,1.844978 3.76108,4.399359 3.76108,7.805477 0,1.986971 -0.42537,3.619645 -1.34787,5.109816 -0.92251,1.419194 -2.19974,2.553771 -3.97379,3.405375 2.41271,0.780552 4.25706,2.058457 5.53439,3.832513 1.27731,1.703078 1.91626,3.831901 1.91626,6.315531 -0.0711,2.483713 -0.70992,4.612142 -1.91626,6.38616 -1.27733,1.774037 -3.05091,3.122761 -5.32165,4.045268 -2.34176,0.922527 -5.10915,1.418489 -8.30243,1.418489 h -16.32151 z m -83.02517,6.670345 v 10.218702 h 6.31553 c 2.19982,0 3.83229,-0.496884 4.96767,-1.419325 1.13539,-0.922536 1.70269,-2.271119 1.70269,-3.903181 0,-3.264265 -2.19977,-4.896196 -6.67036,-4.896196 z m 91.25697,0 v 10.218702 h 6.31552 c 2.19983,0 3.83228,-0.496884 4.96767,-1.419325 1.1354,-0.922536 1.70271,-2.271119 1.70271,-3.903181 0,-3.264265 -2.19977,-4.896196 -6.67038,-4.896196 z m -91.25697,16.676349 v 11.06961 h 7.23792 c 2.48366,0 4.39971,-0.496837 5.74797,-1.419363 1.34829,-0.922451 1.9869,-2.270329 1.9869,-4.044422 0.071,-3.760933 -2.48353,-5.605825 -7.59276,-5.605825 z m 91.25697,0 v 11.06961 h 7.23792 c 2.48364,0 4.3997,-0.496837 5.74798,-1.419363 1.34826,-0.922451 1.98689,-2.270329 1.98689,-4.044422 0.071,-3.760933 -2.48353,-5.605825 -7.59277,-5.605825 z" /></svg>
