<?xml version="1.0" encoding="UTF-8" standalone="no"?>
<!-- Generator: Adobe Illustrator 25.3.1, SVG Export Plug-In . SVG Version: 6.00 Build 0)  -->

<svg
   version="1.1"
   viewBox="0 0 439.33198 295.81424"
   xml:space="preserve"
   id="svg13816"
   xmlns="http://www.w3.org/2000/svg"
   xmlns:svg="http://www.w3.org/2000/svg"><defs
   id="defs19" />
<path
   id="path6041"
   style="fill:#eb504a"
   d="M 89.142176,0 V 73.435906 H 162.16221 V 0 Z M 180.19919,0 V 73.435906 H 253.0181 V 0 Z m 90.98521,0 v 73.435906 h 73.01922 V 0 Z m 39.80947,15.628856 c 2.2708,0 4.39976,0.215046 6.45764,0.71458 2.0579,0.499543 3.90246,1.141484 5.67649,2.069264 v 7.992861 c -1.56117,-1.07048 -3.33453,-1.855175 -5.17956,-2.426129 -1.91598,-0.570916 -3.90348,-0.856937 -5.81944,-0.785565 -2.83849,0 -5.251,0.499847 -7.23793,1.570336 -1.98694,0.999114 -3.54788,2.640302 -4.54137,4.567208 -1.06441,1.998205 -1.56143,4.42456 -1.56143,7.279161 0,2.854565 0.49702,5.352775 1.56143,7.351025 0.99349,1.998232 2.55478,3.568614 4.47074,4.639113 1.98695,1.070487 4.32834,1.569455 7.09584,1.569455 4.25769,0 8.16108,-1.141341 11.78013,-3.353748 v 7.920995 h -0.0715 c -1.7031,0.927771 -3.68939,1.713459 -5.88921,2.213003 -2.27076,0.570879 -4.61302,0.784742 -7.09669,0.784742 -3.26422,0 -6.24443,-0.499648 -8.86999,-1.42741 -2.62559,-0.999144 -4.82539,-2.355219 -6.67036,-4.13935 -1.84503,-1.784142 -3.19304,-3.995945 -4.18653,-6.636475 -0.99345,-2.640473 -1.41934,-5.566722 -1.41934,-8.849484 0,-3.211486 0.49653,-6.066013 1.48997,-8.70658 0.99349,-2.569196 2.48361,-4.781811 4.32864,-6.637307 1.91596,-1.855486 4.18686,-3.282592 6.81245,-4.210374 2.62558,-0.999077 5.60576,-1.499321 8.87,-1.499321 z M 109.9537,16.057632 h 15.39825 c 4.54154,0 8.08989,0.927791 10.57353,2.711902 2.48365,1.855488 3.76108,4.424419 3.76108,7.849936 0,1.998289 -0.42535,3.640263 -1.34786,5.138921 -0.92248,1.427277 -2.19978,2.568316 -3.9738,3.424771 2.4127,0.784997 4.25709,2.070181 5.53439,3.854342 1.27731,1.712779 1.91628,3.853727 1.91628,6.351503 0.071,2.49786 -0.56748,4.638413 -1.84481,6.422534 -1.2773,1.784142 -3.05173,3.140548 -5.32251,4.068309 -2.34173,0.927783 -5.10914,1.426569 -8.30242,1.426569 H 109.9537 Z m 91.17356,0 h 15.39826 c 4.54155,0 8.08985,0.927791 10.57352,2.711902 2.48367,1.855488 3.76108,4.424419 3.76108,7.849936 0,1.998289 -0.42537,3.640263 -1.34787,5.138921 -0.92251,1.427277 -2.19974,2.568316 -3.97379,3.424771 2.41271,0.784997 4.25706,2.070181 5.53439,3.854342 1.27731,1.712779 1.91626,3.853727 1.91626,6.351503 -0.0711,2.49786 -0.70992,4.638413 -1.91626,6.422534 -1.27733,1.784142 -3.05091,3.140548 -5.32165,4.068309 -2.34176,0.927783 -5.10915,1.426569 -8.30243,1.426569 h -16.32151 z m -82.87112,6.708339 v 10.276905 h 6.31552 c 2.19982,0 3.83229,-0.499714 4.96767,-1.427409 1.13539,-0.927792 1.70269,-2.284056 1.70269,-3.925414 0,-3.282856 -2.19977,-4.924082 -6.67036,-4.924082 z m 91.10292,0 v 10.276905 h 6.31552 c 2.19983,0 3.83228,-0.499714 4.96767,-1.427409 1.1354,-0.927792 1.70271,-2.284056 1.70271,-3.925414 0,-3.282856 -2.19977,-4.924082 -6.67038,-4.924082 z m -91.10292,16.771333 v 11.13266 h 7.23791 c 2.48366,0 4.39971,-0.499667 5.74797,-1.427448 1.34829,-0.927704 1.9869,-2.28326 1.9869,-4.067457 0.071,-3.782356 -2.48353,-5.637755 -7.59276,-5.637755 z m 91.10292,0 v 11.13266 h 7.23793 c 2.48364,0 4.39969,-0.499667 5.74798,-1.427448 1.34827,-0.927704 1.98689,-2.28326 1.98689,-4.067457 0.071,-3.782356 -2.48354,-5.637755 -7.59278,-5.637755 z" />
<path
   d="m 85.830664,108.20791 q 14.500246,0 26.136236,4.63052 11.81502,4.63052 20.04974,13.35727 8.41371,8.54866 12.88911,20.83735 4.47537,12.1106 4.47537,27.42694 0,15.13824 -4.47537,27.42694 -4.4754,12.28869 -12.88911,21.01544 -8.23472,8.72676 -20.04974,13.35728 -11.63599,4.63052 -26.136236,4.63052 -14.50025,0 -26.31527,-4.63052 -11.636,-4.63052 -20.04972,-13.35728 -8.23471,-8.72675 -12.71009,-21.01544 -4.47539,-12.2887 -4.47539,-27.42694 0,-15.31634 4.47539,-27.42694 4.47538,-12.28869 12.71009,-20.83735 8.41372,-8.72675 20.04972,-13.35727 11.81502,-4.63052 26.31527,-4.63052 z m 0,108.81726 q 10.91994,0 18.796606,-4.98671 7.87668,-5.16482 11.99404,-14.60396 4.11735,-9.43914 4.11735,-22.97451 0,-13.53537 -4.11735,-22.97451 -4.11736,-9.43914 -11.99404,-14.42586 -7.876666,-4.98672 -18.796606,-4.98672 -10.91994,0 -18.79662,4.98672 -7.87668,4.98672 -11.99403,14.42586 -4.11736,9.43914 -4.11736,22.97451 0,13.53537 4.11736,22.97451 4.11735,9.43914 11.99403,14.60396 7.87668,4.98671 18.79662,4.98671 z"
   id="path4195"
   style="fill:#eb504a" /><path
   d="M 249.51284,238.21872 Q 235.62127,215.95659 221.37351,193.69447 207.12575,171.25424 193.23419,150.2388 v 87.97992 H 166.87583 V 110.87936 h 27.78313 q 14.42586,21.54974 28.31743,43.27757 14.06966,21.54974 27.96123,43.81186 v -87.08943 h 26.35835 v 127.33936 z"
   id="path4197"
   style="fill:#eb504a" /><path
   d="m 299.57834,110.87936 h 87.62372 v 22.79642 h -60.19678 v 27.60503 h 53.4291 v 22.79642 h -53.4291 v 31.34507 h 63.58063 v 22.79642 h -91.00757 z"
   id="path4199"
   style="fill:#eb504a" /><path
   d="m 20.133198,295.17712 q -2.421081,-3.78028 -4.969587,-7.64551 -2.506031,-3.86524 -5.012062,-7.64552 -2.506031,-3.78029 -4.969587,-7.3482 v 22.63923 H 0 v -30.36969 h 5.436813 q 3.822759,5.52176 7.518093,11.12847 3.737808,5.60672 7.433142,11.38333 v -22.5118 h 5.181963 v 30.36969 z"
   id="path10717"
   style="fill:#eb504a" /><path
   d="m 46.085472,264.1703 q 3.398008,0 6.116414,1.10435 2.718407,1.10436 4.672261,3.18564 1.99633,2.08128 3.015733,5.01206 1.061877,2.93078 1.061877,6.54116 0,3.61039 -1.061877,6.54117 -1.019403,2.88831 -2.973257,4.96959 -1.953855,2.08128 -4.714737,3.18563 -2.718406,1.10435 -6.116414,1.10435 -3.398008,0 -6.116415,-1.10435 -2.718406,-1.10435 -4.714736,-3.18563 -1.953855,-2.08128 -3.015732,-5.01207 -1.019403,-2.93078 -1.019403,-6.54116 0,-3.61039 1.019403,-6.49869 1.061877,-2.93078 3.015732,-5.01206 1.953854,-2.08128 4.672261,-3.18564 2.760882,-1.10435 6.15889,-1.10435 z m 0,26.97169 q 2.888307,0 4.969587,-1.31673 2.081279,-1.3592 3.185632,-3.82276 1.104353,-2.50603 1.104353,-5.98899 0,-3.52543 -1.104353,-5.98899 -1.104353,-2.50603 -3.185632,-3.82276 -2.08128,-1.3592 -4.969587,-1.3592 -2.888307,0 -4.969587,1.3592 -2.08128,1.31673 -3.185633,3.82276 -1.104352,2.46356 -1.104352,5.94652 0,3.48296 1.104352,5.98899 1.104353,2.50603 3.185633,3.86523 2.08128,1.31673 4.969587,1.31673 z"
   id="path10719"
   style="fill:#eb504a" /><path
   d="m 71.910301,283.53895 v 11.63817 h -5.309387 v -30.36969 h 10.448875 q 5.904039,0 9.047196,2.46355 3.143158,2.42108 3.143158,6.92344 0,3.01574 -1.529104,5.18197 -1.529104,2.12375 -4.374935,3.18563 1.996329,3.05821 3.950184,6.20136 1.953855,3.14316 3.865234,6.41374 h -6.201365 q -1.656529,-2.97325 -3.398008,-5.86156 -1.699004,-2.88831 -3.482958,-5.81909 -0.509701,0.0425 -1.061878,0.0425 z m 0,-14.44154 v 10.15155 h 4.799687 q 3.525433,0 5.309387,-1.1893 1.783955,-1.23178 1.783955,-3.86524 0,-2.63345 -1.783955,-3.86523 -1.783954,-1.23178 -5.266912,-1.23178 z"
   id="path10721"
   style="fill:#eb504a" /><path
   d="m 93.135589,264.80743 h 25.187731 v 4.67226 h -9.89669 v 25.69743 h -5.39434 v -25.69743 h -9.896701 z"
   id="path10723"
   style="fill:#eb504a" /><path
   d="m 143.0777,295.17712 v -13.54955 h -14.78134 v 13.54955 h -5.39433 v -30.36969 h 5.39433 v 12.14788 h 14.78134 v -12.14788 h 5.39434 v 30.36969 z"
   id="path10725"
   style="fill:#eb504a" /><path
   d="m 154.95034,264.80743 h 20.3031 v 4.54483 h -14.90876 v 7.8579 h 13.29471 v 4.54483 h -13.29471 v 8.8773 h 15.71579 v 4.54483 h -21.11013 z"
   id="path10727"
   style="fill:#eb504a" /><path
   d="m 187.10733,283.53895 v 11.63817 h -5.30939 v -30.36969 h 10.44887 q 5.90404,0 9.0472,2.46355 3.14316,2.42108 3.14316,6.92344 0,3.01574 -1.52911,5.18197 -1.5291,2.12375 -4.37493,3.18563 1.99633,3.05821 3.95018,6.20136 1.95386,3.14316 3.86524,6.41374 h -6.20137 q -1.65653,-2.97325 -3.39801,-5.86156 -1.699,-2.88831 -3.48295,-5.81909 -0.50971,0.0425 -1.06188,0.0425 z m 0,-14.44154 v 10.15155 h 4.79968 q 3.52544,0 5.30939,-1.1893 1.78395,-1.23178 1.78395,-3.86524 0,-2.63345 -1.78395,-3.86523 -1.78395,-1.23178 -5.26691,-1.23178 z"
   id="path10729"
   style="fill:#eb504a" /><path
   d="m 230.74901,295.17712 q -2.42108,-3.78028 -4.96959,-7.64551 -2.50603,-3.86524 -5.01206,-7.64552 -2.50603,-3.78029 -4.96958,-7.3482 v 22.63923 h -5.18197 v -30.36969 h 5.43682 q 3.82276,5.52176 7.51809,11.12847 3.73781,5.60672 7.43314,11.38333 v -22.5118 h 5.18196 v 30.36969 z"
   id="path10731"
   style="fill:#eb504a" /><path
   d="m 254.76587,264.80743 h 5.39434 v 30.36969 h -5.39434 z"
   id="path10733"
   style="fill:#eb504a" /><path
   d="m 271.76277,283.53895 v 11.63817 h -5.30939 v -30.36969 h 10.44888 q 5.90404,0 9.04719,2.46355 3.14316,2.42108 3.14316,6.92344 0,3.01574 -1.5291,5.18197 -1.52911,2.12375 -4.37494,3.18563 1.99633,3.05821 3.95019,6.20136 1.95385,3.14316 3.86523,6.41374 h -6.20136 q -1.65653,-2.97325 -3.39801,-5.86156 -1.69901,-2.88831 -3.48296,-5.81909 -0.5097,0.0425 -1.06188,0.0425 z m 0,-14.44154 v 10.15155 h 4.79969 q 3.52543,0 5.30938,-1.1893 1.78396,-1.23178 1.78396,-3.86524 0,-2.63345 -1.78396,-3.86523 -1.78395,-1.23178 -5.26691,-1.23178 z"
   id="path10735"
   style="fill:#eb504a" /><path
   d="m 296.15458,264.80743 h 20.3031 v 4.54483 h -14.90877 v 7.8579 h 13.29471 v 4.54483 h -13.29471 v 8.8773 h 15.71579 v 4.54483 h -21.11012 z"
   id="path10737"
   style="fill:#eb504a" /><path
   d="m 323.64421,264.80743 h 5.39434 v 25.69743 h 14.95123 v 4.67226 h -20.34557 z"
   id="path10739"
   style="fill:#eb504a" /><path
   d="m 371.32643,295.17712 q -0.63713,-1.8689 -1.31673,-3.69533 -0.63713,-1.8689 -1.31673,-3.69533 h -13.2947 q -0.67961,1.82643 -1.31673,3.69533 -0.63713,1.82643 -1.27426,3.69533 h -5.69166 q 2.93078,-7.98532 5.94651,-15.58836 3.05821,-7.60304 6.20137,-14.78133 h 5.73414 q 3.22811,7.60304 6.24384,15.20608 3.05821,7.60305 5.90404,15.16361 z M 357.05479,283.2841 h 9.98165 q -1.23177,-3.35554 -2.46355,-6.62612 -1.23178,-3.27058 -2.50603,-6.49869 -1.31673,3.22811 -2.59098,6.54116 -1.23178,3.27059 -2.42109,6.58365 z"
   id="path10741"
   style="fill:#eb504a" /><path
   d="m 401.27809,295.17712 q -2.42108,-3.78028 -4.96959,-7.64551 -2.50603,-3.86524 -5.01206,-7.64552 -2.50603,-3.78029 -4.96959,-7.3482 v 22.63923 h -5.18196 v -30.36969 h 5.43681 q 3.82276,5.52176 7.51809,11.12847 3.73781,5.60672 7.43315,11.38333 v -22.5118 h 5.18196 v 30.36969 z"
   id="path10743"
   style="fill:#eb504a" /><path
   d="m 413.12484,295.17712 v -30.36969 h 11.086 q 4.75721,0 8.11274,1.78395 3.39801,1.78395 5.18197,5.18196 1.82643,3.35554 1.82643,8.15522 0,4.84216 -1.82643,8.24017 -1.78396,3.39801 -5.18197,5.22444 -3.35553,1.78395 -8.15522,1.78395 z m 5.39434,-25.78238 v 21.19507 h 5.35186 q 4.75721,0 7.30572,-2.7184 2.5485,-2.71841 2.5485,-7.94285 0,-5.13948 -2.50603,-7.81542 -2.50603,-2.7184 -7.30572,-2.7184 z"
   id="path10745"
   style="fill:#eb504a" /></svg>
