<svg id="svg2985" xmlns="http://www.w3.org/2000/svg" xmlns:xlink="http://www.w3.org/1999/xlink" viewBox="0 0 1913 957.52613"><defs><style>.cls-1{fill:url(#Безымянный_градиент);}.cls-2{fill:url(#Безымянный_градиент_2);}.cls-3{fill:url(#Безымянный_градиент_3);}.cls-4{fill:url(#Безымянный_градиент_4);}.cls-5{fill:#a51959;}</style><linearGradient id="Безымянный_градиент" x1="-446.92003" y1="351.60014" x2="-446.05239" y2="351.28435" gradientTransform="translate(903812.31262 -296887.89864) rotate(20.00003) scale(1672.95113)" gradientUnits="userSpaceOnUse"><stop offset="0" stop-color="#37001f"/><stop offset="1" stop-color="#a81a5a"/></linearGradient><linearGradient id="Безымянный_градиент_2" x1="0.9427" y1="307.4313" x2="1528.19563" y2="307.4313" gradientTransform="matrix(1, 0, 0, -1, 0, 957.49937)" xlink:href="#Безымянный_градиент"/><linearGradient id="Безымянный_градиент_3" x1="-2.73072" y1="307.4313" x2="1528.5061" y2="307.4313" gradientTransform="matrix(1, 0, 0, -1, 0, 957.49937)" xlink:href="#Безымянный_градиент"/><linearGradient id="Безымянный_градиент_4" x1="0" y1="307.98082" x2="1529.43458" y2="307.98082" gradientTransform="matrix(1, 0, 0, -1, 0, 957.49937)" xlink:href="#Безымянный_градиент"/></defs><g id="g2993"><g id="g6257"><g id="g6259"><g id="g6265"><g id="g6267"><path id="path6275" class="cls-1" d="M942.35474,77.57206c0,45.16591,35.8048,63.34024,61.97661,76.59755h0c16.16494,8.21581,30.16633,15.31123,30.16633,25.12464h0c0,10.975-6.054,17.01227-17.0596,17.01227h0c-12.58651-.01945-33.64062-17.98751-40.69335-24.91689h0c-1.99695-1.97111-5.09687-4.62662-9.19552-4.62662h0c-3.079,0-5.80459,1.43155-8.36341,4.31548h0l-25.40217,29.75109c-7.80154,8.75507-1.78863,15.64305.33334,17.61416h0c3.66179,3.87959,37.1774,37.73852,83.32179,37.73852h0c50.74188,0,89.02225-34.06623,89.02225-79.25307h0c0-46.74274-36.40776-65.47711-62.97484-79.17025h0c-15.29117-7.88386-28.48127-14.68888-28.48127-23.23663h0c0-8.46466,6.03318-12.03323,11.4425-12.57249h0c11.79606-1.18269,20.63809,3.6309,25.007,6.4109h0c4.369,2.75952,7.90573,5.29052,7.90573,5.29052h0c2.413,1.32841,4.20228,2.24074,7.198,2.22h0a10.56433,10.56433,0,0,0,8.88369-4.87532h0l19.972-29.357c3.68269-5.18664,6.76172-11.9709-2.351-18.9626h0C1078.39515,11.47288,1058.94334,0,1025.94733,0h0c-49.22349,0-83.592,31.90874-83.592,77.57266M256.94646,36.971a125.98673,125.98673,0,0,0,0,178.48583h0a126.18509,126.18509,0,0,0,82.09445,36.722h0s75.45778,2.51022,135.45738,1.7641h0c.89521-71.61824-1.74759-135.083-1.74759-135.083h0a125.59341,125.59341,0,0,0-36.84441-81.88808h0a126.30735,126.30735,0,0,0-89.4799-36.971h0a126.27122,126.27122,0,0,0-89.47965,36.971m50.74188,127.86319a54.539,54.539,0,0,1,0-77.26162h0a54.94279,54.94279,0,0,1,77.47586,0h0a54.52135,54.52135,0,0,1-.01471,77.2558l-.00494.00494h0a54.67677,54.67677,0,0,1-38.71723,15.99591h0a54.68864,54.68864,0,0,1-38.73778-15.99591M648.37632,2.80077c-6.90694,0-11.33831,4.523-11.33831,11.494h0V155.1661c0,25.31132-9.67409,38.71376-27.94017,38.71376h0c-6.49086,0-26.2346,0-26.2346-38.71376h0V14.29479c0-6.97093-4.45225-11.494-11.3592-11.494h0l-46.31075.01958c-6.907-.01958-11.35917,4.50227-11.35917,11.47319h0V155.16489c0,67.03331,32.05942,101.03751,95.28424,101.03751h0c63.41206,0,96.92761-34.95853,96.92761-101.03751h0V14.29355c0-6.97093-4.45226-11.494-11.33832-11.494h0Zm485.20808.01959c-7.01114,0-11.56753,4.52274-11.56753,11.51444h0V52.82034c0,6.9917,4.55639,11.49366,11.56753,11.49366h44.77123V242.46771c0,6.99155,4.53562,11.49366,11.56752,11.49366h47.10091c7.0319,0,11.52587-4.50211,11.52587-11.49366h0V64.314h44.81289c6.74083,0,11.19253-4.19093,11.52587-10.74694h0V13.58779c-.33334-6.556-4.78492-10.76772-11.52587-10.76772h0Zm-376.671.05847c-6.99025,0-11.52581,4.52274-11.52581,11.51444h0V242.48464c0,6.9917,4.53556,11.51458,11.52581,11.51458H895.18c7.0319,0,11.54664-4.52272,11.54664-11.51458h0V204.01986c0-6.99155-4.51474-11.51458-11.54664-11.51458H815.58246V159.01972h70.04833c7.0319,0,11.54664-4.52273,11.54664-11.53521h0l-.01965-38.46464c.01965-6.9917-4.49391-11.51443-11.52581-11.51443H815.58364V64.39353h79.59752c7.0319,0,11.54663-4.54351,11.54663-11.53521h0V14.39357c0-6.99171-4.51473-11.51444-11.54663-11.51444h0Z" transform="translate(0)"/></g></g></g></g></g><path class="cls-2" d="M883.50513,492.86259c14.65332,0,27.58258-11.67725,27.58258-25.85694V371.08491c.862-14.17969-10.34357-26.69111-24.99658-28.35913h-346.505c-14.65332-.83414-27.58258,10.8431-28.44434,25.02279V929.09333c-.862,14.17969,10.34357,26.6911,24.99659,28.35913H883.50513c14.65332,0,27.58258-11.67725,27.58258-25.857V836.50867c.862-14.17968-10.34357-26.6911-24.99658-28.35913H676.118V724.74048h184.1145a27.63985,27.63985,0,0,0,29.30634-25.85693V602.12861c1.724-14.17969-7.75751-27.525-23.27283-30.02741H676.118V492.8624H883.50513Z" transform="translate(0)"/><path class="cls-3" d="M1213.11438,492.02845c80.1615-3.33634,147.39392,55.88434,151.70374,133.45495V666.354c0,70.06378-50.85511,130.95276-123.25916,140.96173a128.86946,128.86946,0,0,1-31.0304.83417h-62.92248V492.02845ZM1529.451,654.67664c0-274.41665-221.52185-311.95086-283.58228-311.95086H1020.03705c-14.65332-.83414-27.58258,10.8431-28.44434,25.02279V929.09333c-.862,14.17969,10.34351,26.6911,24.99658,28.35913h225.83136c162.047-5.00464,292.20191-136.79126,287.03-293.601.00025-3.33631.00025-5.8385.00025-9.17481Z" transform="translate(0)"/><path class="cls-4" d="M225.14523,482.01923c31.89237-2.50216,60.33667,20.01819,62.92243,50.87976v10.00922c0,52.54779-46.54538,58.38653-76.71372,58.38653H153.603V482.01948h71.5422Zm221.52164,55.88434c6.89551-100.92535-72.404-188.50516-177.56226-195.17779-6.03378,0-12.92929-.83414-18.963,0H28.61965C13.96636,341.89164,1.03707,351.90085.17533,366.0803V928.25916c-1.724,14.17969,9.48153,26.6911,24.13456,28.35913h102.5723a25.83217,25.83217,0,0,0,27.5683-23.97058q.00762-.109.01429-.21808V736.41773h24.99657l98.26253,205.187c4.30975,8.34094,12.92929,14.17969,22.41082,14.17969H411.32651c15.515,0,27.58258-12.51141,26.72058-27.525,0-4.17048-.862-8.341-3.44776-11.67725L333.75079,712.22932C406.15527,681.3675,447.5289,612.13782,446.6669,537.90357Z" transform="translate(0)"/><path class="cls-5" d="M1849.36911,674.60138a7.93614,7.93614,0,0,0-7.86233,6.63916h0c-4.14714,24.87312-31.57846,43.23781-65.18692,43.58315h0a7.92775,7.92775,0,0,0-7.90558,7.88855h0V775.95a7.94591,7.94591,0,0,0,7.94822,7.93173H1832.348V949.55a7.95681,7.95681,0,0,0,7.94884,7.97489h64.75435A7.983,7.983,0,0,0,1913,949.55h0V682.5331a7.946,7.946,0,0,0-7.94884-7.93172h-55.682Z" transform="translate(0)"/><path class="cls-5" d="M1623.3107,730.12589a7.94588,7.94588,0,0,0-7.94822,7.93172h0v72.29323H1544.9921A7.99256,7.99256,0,0,0,1537,818.32573h0v50.99809a7.99216,7.99216,0,0,0,7.9921,7.97489h70.37038v72.25253a7.95667,7.95667,0,0,0,7.94822,7.97489h52.7455a7.99256,7.99256,0,0,0,7.9921-7.97489h0V877.30118H1754.03a7.95511,7.95511,0,0,0,7.94823-7.97489h0V818.3282a7.95668,7.95668,0,0,0-7.94823-7.97489H1684.0483V738.06008a7.9832,7.9832,0,0,0-7.9921-7.93172h0Z" transform="translate(0)"/></svg>