<svg id="svg2985" xmlns="http://www.w3.org/2000/svg" xmlns:xlink="http://www.w3.org/1999/xlink" viewBox="0 0 1529.59974 959.45248"><defs><style>.cls-1{fill:url(#Безымянный_градиент_5);}.cls-2{fill:url(#Безымянный_градиент_5-2);}.cls-3{fill:url(#Безымянный_градиент_5-3);}.cls-4{fill:url(#Безымянный_градиент_5-4);}</style><linearGradient id="Безымянный_градиент_5" x1="-253.06694" y1="667.38596" x2="-252.21" y2="667.69786" gradientTransform="matrix(1572.05957, 572.18372, 572.18372, -1572.05957, 15971.56316, 1194098.6434)" gradientUnits="userSpaceOnUse"><stop offset="0" stop-color="#37001f"/><stop offset="1" stop-color="#a81a5a"/></linearGradient><linearGradient id="Безымянный_градиент_5-2" x1="0.9427" y1="652.56868" x2="1528.19572" y2="652.56868" gradientTransform="matrix(1, 0, 0, 1, 0, 0)" xlink:href="#Безымянный_градиент_5"/><linearGradient id="Безымянный_градиент_5-3" x1="-2.73072" y1="652.56868" x2="1528.50615" y2="652.56868" gradientTransform="matrix(1, 0, 0, 1, 0, 0)" xlink:href="#Безымянный_градиент_5"/><linearGradient id="Безымянный_градиент_5-4" x1="0" y1="652.00983" x2="1529.43458" y2="652.00983" gradientTransform="matrix(1, 0, 0, 1, 0, 0)" xlink:href="#Безымянный_градиент_5"/></defs><g id="g2993"><g id="g6257"><g id="g6259"><g id="g6265"><g id="g6267"><path id="path6275" class="cls-1" d="M886.43345,77.32719c0,44.73188,35.3627,62.73156,61.21132,75.86148h0c15.96536,8.13685,29.79382,15.16409,29.79382,24.8832h0c0,10.86956-5.97922,16.84878-16.84893,16.84878h0c-12.43109-.01926-33.22521-17.81465-40.19088-24.67744h0c-1.9723-1.95217-5.03392-4.58215-9.082-4.58215h0c-3.041,0-5.73291,1.41779-8.26016,4.274h0l-25.08851,29.46519c-7.7052,8.67093-1.76654,15.49272.32921,17.44488h0c3.61657,3.84232,36.71833,37.37587,82.29292,37.37587h0c50.11529,0,87.92294-33.73886,87.92294-78.49146h0c0-46.29355-35.95821-64.84789-62.19718-78.40945h0c-15.10237-7.80809-28.12956-14.54772-28.12956-23.01333h0c0-8.38332,5.95865-11.91759,11.3012-12.45167h0c11.6504-1.17133,20.38321,3.596,24.69817,6.34929h0c4.315,2.733,7.80808,5.23968,7.80808,5.23968h0c2.38322,1.31565,4.15036,2.21921,7.10911,2.19863h0a10.427,10.427,0,0,0,8.774-4.82847h0l19.72537-29.07485c3.63715-5.1368,6.6782-11.85586-2.32208-18.78037h0C1020.794,11.86321,1001.58239.50058,968.99384.50058h0c-48.61563,0-82.55981,31.6021-82.55981,76.8272M209.48886,37.11633a125.02038,125.02038,0,0,0,0,176.77061h0a124.47,124.47,0,0,0,81.08073,36.36913h0s74.526,2.4861,133.7847,1.74715h0c.88416-70.93-1.726-133.78485-1.726-133.78485h0a124.54232,124.54232,0,0,0-36.38942-81.10116h0A124.57255,124.57255,0,0,0,297.86387.50146h0a124.5369,124.5369,0,0,0-88.37472,36.61575m50.11529,126.63445a54.1207,54.1207,0,0,1,0-76.51916h0a54.158,54.158,0,0,1,76.51916,0h0a54.10314,54.10314,0,0,1-.0194,76.51828h0a53.92578,53.92578,0,0,1-38.23915,15.8422h0a53.93745,53.93745,0,0,1-38.25943-15.8422M596.08523,3.27444c-6.82164,0-11.19833,4.47957-11.19833,11.38351h0V154.17556c0,25.06808-9.55464,38.34173-27.59518,38.34173h0c-6.41072,0-25.91064,0-25.91064-38.34173h0V14.658c0-6.90394-4.39727-11.38351-11.21891-11.38351h0l-45.73889.0194c-6.82164-.0194-11.21891,4.459-11.21891,11.36293h0V154.17438c0,66.38914,31.66354,100.06657,94.10763,100.06657h0c62.629,0,95.73074-34.62258,95.73074-100.06657h0V14.65677c0-6.90394-4.39727-11.3835-11.19833-11.3835h0Zm479.21662.0194c-6.92451,0-11.42465,4.47927-11.42465,11.40379h0v38.1157c0,6.92451,4.50014,11.38321,11.42465,11.38321h44.21838V240.63823c0,6.92437,4.47956,11.38321,11.42465,11.38321h46.5193c6.94509,0,11.3835-4.45884,11.3835-11.38321h0V64.19654h44.25952c6.65763,0,11.0543-4.15066,11.38351-10.64367h0V13.95779c-.32921-6.493-4.72588-10.66424-11.38351-10.66424h0Zm-372.01978.05791c-6.90394,0-11.38351,4.47927-11.38351,11.40378h0V240.655c0,6.92451,4.47957,11.40393,11.38351,11.40393H839.84122c6.94509,0,11.40408-4.47927,11.40408-11.40393h0V202.55986c0-6.92436-4.459-11.40393-11.40408-11.40393H761.2266V157.99215H830.41c6.94509,0,11.40408-4.47927,11.40408-11.42436h0l-.0194-38.095c.0194-6.92451-4.43841-11.40378-11.3835-11.40378H761.22778V64.27531H839.8424c6.94509,0,11.40408-4.49985,11.40408-11.42436h0V14.75583c0-6.92452-4.459-11.40379-11.40408-11.40379h0Z" transform="translate(0 -0.50058)"/></g></g></g></g></g><path class="cls-2" d="M883.50513,495.3632c14.6533,0,27.58259-11.67725,27.58259-25.85694V373.58552c.862-14.17969-10.34354-26.69109-24.99657-28.35912h-346.505c-14.6533-.83415-27.58259,10.84311-28.44433,25.0228V931.59393c-.862,14.17969,10.34354,26.69109,24.99657,28.35913H883.50513c14.6533,0,27.58259-11.67726,27.58259-25.857V839.00926c.862-14.17969-10.34354-26.69109-24.99657-28.35912H676.11806V727.24106H860.23257a27.63985,27.63985,0,0,0,29.30633-25.85695V604.62923c1.724-14.17969-7.75752-27.525-23.27282-30.02741h-190.148V495.363H883.50513Z" transform="translate(0 -0.50058)"/><path class="cls-3" d="M1213.11436,494.52906c80.16148-3.33632,147.39393,55.88436,151.70369,133.45494v40.87052c0,70.06379-50.85514,130.95276-123.2591,140.96173a128.86683,128.86683,0,0,1-31.03034.83414h-62.92243V494.52906ZM1529.451,657.17727c0-274.41667-221.52189-311.95087-283.58232-311.95087H1020.03706c-14.6533-.83415-27.58259,10.84311-28.44433,25.0228V931.59393c-.862,14.17969,10.34353,26.69109,24.99657,28.35913h225.83139c162.047-5.00462,292.20185-136.79127,287.03008-293.601.00026-3.33632.00026-5.8385.00026-9.17482Z" transform="translate(0 -0.50058)"/><path class="cls-4" d="M225.14524,484.51984c31.89235-2.50218,60.33668,20.01819,62.92243,50.87974v10.00923c0,52.54778-46.54538,58.38653-76.71372,58.38653H153.603V484.52009h71.54221Zm221.52164,55.88435c6.89551-100.92534-72.404-188.50515-177.56227-195.17779-6.03377,0-12.92929-.83415-18.96306,0H28.61965c-14.65329-.83415-27.58258,9.17508-28.44432,23.35451V930.75979c-1.724,14.17969,9.48153,26.69109,24.13456,28.35912h102.5723a25.83214,25.83214,0,0,0,27.58258-24.18866V738.91831h24.99657l98.26253,205.187c4.30976,8.34094,12.92929,14.17969,22.41082,14.17969H411.32651c15.515,0,27.58258-12.5114,26.72058-27.525,0-4.17046-.862-8.34093-3.44776-11.67725L333.75078,714.72991c72.40449-30.86181,113.7781-100.09146,112.9161-174.32572Z" transform="translate(0 -0.50058)"/></svg>