<?xml version="1.0" encoding="UTF-8" standalone="no"?>
<svg
   version="1.2"
   id="svg2206"
   width="1000"
   height="413.52942"
   viewBox="0 0 1000 413.52942"
   xmlns="http://www.w3.org/2000/svg"
   xmlns:svg="http://www.w3.org/2000/svg">
  <defs
     id="defs1069" />
  <path
     style="fill:#32965a"
     d="M 1000,413.52941 H 0 V 0 h 1000 z m 0,0"
     id="path2163" />
  <path
     d="m 583.40714,293.64378 c -38.1125,0 -70.1546,-27.31068 -75.9072,-65.95639 h 72.1288 c 7.9538,0 25.3478,1.67928 25.3478,1.67928 v -32.03079 c 0,0 -17.0423,1.25946 -26.5732,1.25946 h -70.9034 c 7.1142,-37.90818 38.2259,-64.05019 75.9072,-64.05019 19.9128,0 44.3869,9.13381 44.3869,9.13381 l 0.4198,-33.69867 c 0,0 -17.3599,-6.64899 -44.8067,-6.64899 -63.4376,0 -118.9553,48.66454 -118.9553,110.60432 0,67.01159 55.5177,112.26089 118.9553,112.26089 29.8068,0 47.666,-7.97651 47.666,-7.97651 l -0.8737,-34.8787 c 0,0 -21.9438,10.30248 -46.7923,10.30248"
     id="path2165"
     style="fill:#ffffff" />
  <path
     d="m 367.50855,325.34553 c 0,0 2.41677,-16.16858 2.41677,-30.32883 V 141.27352 h -10.38189 c -14.10353,0 -35.99067,0 -52.11384,1.56582 l -1.40696,-35.69567 h 168.40271 l -0.8283,35.69567 c -16.6792,-1.56582 -38.1351,-1.56582 -52.6585,-1.56582 h -12.7987 V 295.0167 c 0,14.16025 2.8253,30.32883 2.8253,30.32883 z m 0,0"
     id="path2167"
     style="fill:#ffffff" />
  <path
     d="m 628.52024,89.30721 c -12.3562,-3.48333 -28.5702,-5.87742 -42.1631,-5.87742 -36.9551,0 -68.8157,11.21022 -95.3888,34.93543 l 0.3971,-26.22143 c 28.1616,-19.20938 60.0903,-27.84397 94.9917,-27.84397 15.2949,0 28.5701,2.11045 42.5942,5.75261 z m 0,0"
     id="path2169"
     style="fill:#ffffff" />
  <path
     d="m 292.13468,295.42518 -58.50181,-56.49353 c 36.002,-3.49469 66.26274,-30.03383 66.26274,-64.48136 0,-36.64875 -21.04749,-69.11068 -83.87229,-71.70899 -2.621,-0.1249 -5.34412,-0.19287 -8.15802,-0.19287 -43.46792,0 -73.27481,2.08773 -73.27481,2.08773 0,0 1.95159,21.52406 1.95159,32.33712 v 158.45193 c 0,14.60275 -2.80257,29.92034 -2.80257,29.92034 h 43.86505 c 0,0 -2.82526,-15.31759 -2.82526,-32.77964 v -64.44732 l 41.24402,43.25234 20.84326,21.64884 c 12.84409,14.05812 35.27583,32.32578 35.27583,32.32578 H 330.145 c 0,0 -25.98316,-18.26766 -38.01032,-29.92034 M 206.18602,213.08467 H 174.7793 v -79.35643 c 0,0 15.26087,-0.43117 33.4831,-0.43117 2.73448,0 5.35548,0.2042 7.76092,0.30636 29.19418,2.42812 41.25535,18.39244 41.25535,37.57914 0,21.56942 -16.9628,37.8401 -41.25535,41.31207 -3.15429,0.39713 -6.49013,0.59003 -9.8373,0.59003"
     id="path2171"
     style="fill:#ffffff" />
  <path
     d="m 766.57134,269.81644 c 3.1203,-9.76922 16.2367,-17.11033 35.8659,-30.38556 31.6223,-21.30847 70.9374,-47.83625 70.9374,-90.96374 0,-39.06552 -32.0421,-84.91617 -91.4403,-84.91617 -61.1455,0 -84.9275,54.97311 -85.9941,57.11756 l -1.8154,3.88047 50.0602,26.52778 c 0,0 13.139,-32.60943 40.132,-31.44077 16.9969,0.73753 28.4794,14.70488 28.4794,28.36591 0,17.92724 -23.4983,30.97556 -45.0677,46.78105 -33.5285,24.61023 -73.4677,52.15921 -73.4677,103.51284 v 27.7078 h 179.0228 v -56.18717 z m 0,0"
     id="path2173"
     style="fill:#ffffff" />
</svg>
