<?xml version="1.0" encoding="UTF-8" standalone="no"?>
<svg
   xmlns:dc="http://purl.org/dc/elements/1.1/"
   xmlns:cc="http://creativecommons.org/ns#"
   xmlns:rdf="http://www.w3.org/1999/02/22-rdf-syntax-ns#"
   xmlns:svg="http://www.w3.org/2000/svg"
   xmlns="http://www.w3.org/2000/svg"
   xmlns:sodipodi="http://sodipodi.sourceforge.net/DTD/sodipodi-0.dtd"
   xmlns:inkscape="http://www.inkscape.org/namespaces/inkscape"
   width="1000"
   height="214.12755"
   viewBox="0 0 1000 214.12755"
   version="1.2"
   id="svg146"
   sodipodi:docname="RTE One.svg"
   inkscape:version="1.0.2-2 (e86c870879, 2021-01-15)">
  <metadata
     id="metadata150">
    <rdf:RDF>
      <cc:Work
         rdf:about="">
        <dc:format>image/svg+xml</dc:format>
        <dc:type
           rdf:resource="http://purl.org/dc/dcmitype/StillImage" />
        <dc:title></dc:title>
      </cc:Work>
    </rdf:RDF>
  </metadata>
  <sodipodi:namedview
     pagecolor="#ffffff"
     bordercolor="#666666"
     borderopacity="1"
     objecttolerance="10"
     gridtolerance="10"
     guidetolerance="10"
     inkscape:pageopacity="0"
     inkscape:pageshadow="2"
     inkscape:window-width="1920"
     inkscape:window-height="1001"
     id="namedview148"
     showgrid="false"
     inkscape:zoom="0.5745893"
     inkscape:cx="34.541361"
     inkscape:cy="-27.494445"
     inkscape:window-x="-9"
     inkscape:window-y="-9"
     inkscape:window-maximized="1"
     inkscape:current-layer="surface8612"
     inkscape:document-rotation="0"
     units="px"
     fit-margin-top="0"
     fit-margin-left="0"
     fit-margin-right="0"
     fit-margin-bottom="0" />
  <defs
     id="defs11" />
  <g
     id="surface8612">
    <path
       style="fill:#1176dd;fill-opacity:1;fill-rule:nonzero;stroke:none;stroke-width:9.44624"
       d="m 361.68863,184.49729 c -30.62658,0 -56.41927,-21.9552 -61.0317,-53.06134 h 58.0059 c 6.38366,0 20.3685,1.36522 20.3685,1.36522 v -25.75585 c 0,0 -13.68962,0.99625 -21.36468,0.99625 h -57.00972 c 5.71941,-30.515848 30.73725,-51.548474 61.0317,-51.548474 16.01439,0 35.71871,7.343006 35.71871,7.343006 l 0.33156,-27.084233 c 0,0 -13.98491,-5.350434 -36.0507,-5.350434 -50.99508,0 -95.64342,39.150323 -95.64342,88.964605 0,53.94707 44.64834,90.3299 95.64342,90.3299 23.98461,0 38.33849,-6.45735 38.33849,-6.45735 l -0.66383,-28.0068 c 0,0 -17.67491,8.2655 -37.67437,8.2655"
       id="path117" />
    <path
       style="fill:#1176dd;fill-opacity:1;fill-rule:nonzero;stroke:none;stroke-width:9.44624"
       d="m 188.03971,209.99483 c 0,0 1.95573,-12.98859 1.95573,-24.39056 V 61.917283 h -8.33933 c -11.40197,0 -28.96607,0 -41.95466,1.254558 l -1.10698,-28.707762 h 135.42102 l -0.66383,28.707762 c -13.3944,-1.254558 -30.62651,-1.254558 -42.32364,-1.254558 H 220.73304 V 185.60427 c 0,11.40197 2.25088,24.39056 2.25088,24.39056 h -34.94386"
       id="path119" />
    <path
       style="fill:#1176dd;fill-opacity:1;fill-rule:nonzero;stroke:none;stroke-width:9.44624"
       d="m 397.99771,20.110198 c -9.96286,-2.804407 -22.98843,-4.760067 -33.94747,-4.760067 -29.70408,0 -55.31236,9.07734 -76.7141,28.154306 l 0.33228,-21.106449 C 310.32471,6.937123 336.00674,0 364.05031,0 c 12.32433,0 22.98836,1.697352 34.27953,4.612421 l -0.33157,15.497777"
       id="path121" />
    <path
       style="fill:#1176dd;fill-opacity:1;fill-rule:nonzero;stroke:none;stroke-width:9.44624"
       d="M 127.41397,185.9364 80.36711,140.47631 c 28.92916,-2.80441 53.28281,-24.13232 53.28281,-51.880677 0,-29.445775 -16.93689,-55.570598 -67.4522,-57.673903 -2.10331,-0.07581 -4.28036,-0.147362 -6.56815,-0.147362 -34.9807,0 -58.96531,1.660512 -58.96531,1.660512 0,0 1.62353,17.342631 1.62353,26.051 V 185.93662 C 2.28779,197.67058 0,209.99505 0,209.99505 h 35.27592 c 0,0 -2.25081,-12.32447 -2.25081,-26.34622 v -51.84377 l 33.17261,34.75937 16.75226,17.45337 c 10.36881,11.29123 28.37577,25.97725 28.37577,25.97725 h 46.67782 c 0,0 -20.88513,-14.68602 -30.5896,-24.05843 M 58.26427,119.70206 H 33.02511 V 55.86603 c 0,0 12.28749,-0.369113 26.93659,-0.369113 2.17705,0 4.3172,0.184202 6.23602,0.257883 23.46799,1.95566 33.1726,14.796604 33.1726,30.257469 0,17.305861 -13.61593,30.405181 -33.1726,33.209591 -2.54603,0.33227 -5.23977,0.47963 -7.93345,0.47963"
       id="path123" />
    <path
       style="fill:#1176dd;fill-opacity:1;fill-rule:nonzero;stroke:none;stroke-width:9.44624"
       d="m 680.13099,40.331059 c 0,4.53867 -0.0758,13.32079 -0.0758,21.254093 0,2.693744 0.0758,126.085518 0.0758,143.133068 0,3.54235 3.32102,5.4611 5.46116,5.4611 2.10331,0 11.10676,0.0758 15.31322,0.0758 2.61993,0 5.60875,-2.39853 5.60875,-5.49816 l 0.0354,-64.86919 -0.0354,-47.932371 c 0,-0.184202 0,-3.025733 0,-4.796907 0,-0.959481 0.88509,-1.475955 1.51293,-1.512937 0.47964,0 0.73773,0.110521 1.21772,0.479634 3.65294,3.062644 91.54747,112.949211 98.63217,121.657511 1.54978,1.95566 3.17338,2.50911 4.64941,2.47227 1.25455,-0.0354 4.16962,0.0354 7.63815,0.0354 2.73058,0 4.50176,0 7.49058,-0.0354 1.77117,0 2.61992,-0.55331 3.72683,-1.36536 0.77457,-0.55331 1.99258,-2.47213 1.95566,-3.76367 -0.0758,-4.79698 0.11053,-22.21351 0,-55.45994 -0.14736,-54.352808 0,-106.344217 -0.0354,-109.517595 -0.0354,-0.81141 -0.33227,-2.361542 -1.43918,-3.579189 -1.18074,-1.254629 -2.69361,-1.845068 -4.02199,-1.845068 -2.14014,0 -12.10307,-0.07581 -15.3502,0 -1.29147,0.03542 -2.43536,0.294723 -3.65308,1.365363 -1.25456,1.106913 -1.95566,2.546099 -1.95566,4.169628 0,4.280362 0,39.962088 0,50.035678 v 67.599843 c 0,0.29473 -0.36911,1.03309 -0.84825,1.18074 -0.77457,0.29472 -1.54978,0.22104 -2.14015,-0.66384 -2.54603,-4.02205 -93.90915,-116.196407 -98.63231,-121.731256 -1.32831,-1.549849 -2.87816,-2.140216 -4.42794,-2.140216 -1.84492,0 -13.35756,0 -15.01807,0.03542 -1.32838,0.03542 -2.87816,0.516475 -4.05896,1.623529 -0.99625,0.996321 -1.6236,2.361614 -1.6236,4.132788"
       id="path125" />
    <path
       style="fill:#1176dd;fill-opacity:1;fill-rule:nonzero;stroke:none;stroke-width:9.44624"
       d="m 997.17121,34.611724 c -1.66044,0.03542 -5.97771,0.03542 -14.46461,0 -19.66741,-0.110521 -54.05767,0 -64.20501,0.07581 -21.7338,0.184202 -22.36107,0.110521 -30.58967,0.110521 -8.56065,0 -11.62329,3.874409 -13.87417,6.789479 -2.28779,2.988821 -3.09963,5.719476 -3.09963,11.033 0,13.136163 -0.11052,130.587056 -0.11052,141.767706 0,7.15845 5.97778,15.82983 16.01446,15.82983 8.15477,0 40.84775,-0.14736 62.95045,-0.11052 17.67483,0.0354 36.89951,-0.0354 44.42693,-0.0354 2.28779,0 3.69,-1.32838 4.3911,-2.17699 0.73773,-0.84832 1.25456,-2.25095 1.25456,-3.72697 0,-1.77118 0.0354,-3.46846 0.0354,-5.97765 0,-2.65676 -0.0354,-4.61242 -0.0354,-6.23595 0,-1.51294 -0.25789,-3.17338 -1.88191,-4.61256 -1.47596,-1.36522 -2.73052,-1.5128 -3.68985,-1.5128 -9.07734,0 -18.8188,-0.0354 -26.19865,-0.11052 -7.74889,-0.0758 -37.3054,0.0758 -51.9545,0.0758 -11.69712,0 -13.80042,0.47963 -16.49402,-1.47603 -2.87816,-2.06632 -1.88184,-7.34293 -1.88184,-17.5641 0,-13.06248 -0.0354,-25.86651 -0.0758,-35.97701 16.86307,0 52.47104,0 68.63308,0 0.99625,0 8.04404,0.0758 12.95168,0 1.69735,0 3.39477,-0.95934 3.98514,-1.66044 1.03316,-1.14389 1.40221,-2.25088 1.58669,-3.28404 0.51648,-2.98889 1.1439,-6.12529 1.58669,-9.29867 0.47963,-3.21021 0.81148,-5.12903 1.10691,-6.8633 0.25859,-1.43911 -1.21757,-2.98889 -2.76742,-2.95191 -1.77118,0.0354 -2.28772,0 -5.20286,0 -2.47228,0 -58.63324,-0.0354 -81.91675,-0.0758 -0.0354,-14.35395 -0.0758,-32.102535 0.0758,-42.212965 0.0354,-2.398525 0.92285,-3.542349 1.91882,-4.391096 0.92193,-0.774641 2.17698,-1.402203 3.54235,-1.439044 1.58654,0 3.09948,0.03542 4.94441,0.03542 7.19543,0 19.26159,-0.03542 27.49018,-0.03542 11.77087,0.03542 47.85862,0 56.27163,0.03542 1.10706,0 2.73059,-0.332272 3.9483,-1.66044 1.32831,-1.439044 1.29147,-2.656762 1.99257,-6.641905 0.73773,-4.280362 1.62353,-8.782049 2.14015,-12.398221 0.221,-1.734334 -1.10698,-3.357863 -2.80441,-3.320881"
       id="path127" />
    <path
       style="fill:#1176dd;fill-opacity:1;fill-rule:nonzero;stroke:none;stroke-width:9.44624"
       d="m 561.53619,32.397756 c -49.26089,0 -89.00158,41.216646 -89.00158,91.178504 0,49.99876 39.77767,90.55129 89.03842,90.55129 49.22392,0 89.25983,-40.55253 89.25983,-90.55129 0,-49.961858 -40.0729,-91.178504 -89.29667,-91.178504 m 0.14736,155.863284 c -34.79621,0 -61.21625,-28.59703 -61.21625,-65.75486 0,-37.452896 26.56762,-64.463377 61.10552,-64.463377 34.13202,0 61.43765,27.268718 61.43765,64.463377 0,36.6043 -27.01048,65.75486 -61.32692,65.75486"
       id="path129" />
  </g>
</svg>
